<svg width="136" height="32" viewBox="0 0 136 32" fill="none" xmlns="http://www.w3.org/2000/svg">
<g clip-path="url(#clip0_236_1126)">
<g clip-path="url(#clip1_236_1126)">
<path d="M44.451 10.2568C43.8393 10.5023 43.3049 10.8631 42.8696 11.3158C42.6036 11.5925 42.3741 11.9 42.1732 12.2311V10.1402H38.3576V25.6504H42.1732V17.939C42.1732 17.4037 42.2409 16.8656 42.3765 16.3253C42.5119 15.7848 42.7342 15.2884 43.0439 14.8356C43.4772 14.2023 44.0557 13.8808 44.2988 13.755C44.8404 13.4751 45.3405 13.3912 45.6572 13.3683C46.3126 13.3211 47.0383 13.5567 47.6472 13.8867C47.6472 12.897 47.6472 11.6242 47.6472 10.6344C47.3427 10.3516 46.5703 10.0216 45.9149 10.0216C45.3484 10.0216 44.9782 10.0452 44.451 10.2568Z" fill="white"/>
<path d="M134.34 10.0216C133.774 10.0216 133.404 10.0452 132.877 10.2568C132.265 10.5023 131.731 10.8631 131.295 11.3158C131.029 11.5925 130.8 11.9 130.599 12.2311V10.1402H126.783V25.6504H130.599V17.939C130.599 17.4037 130.667 16.8656 130.802 16.3253C130.937 15.7848 131.16 15.2884 131.469 14.8356C131.903 14.2023 132.481 13.8808 132.724 13.755C133.266 13.4751 133.766 13.3912 134.083 13.3683C134.738 13.3211 135.464 13.5567 136.073 13.8867C136.073 12.897 136.073 11.6242 136.073 10.6344C135.768 10.3514 134.996 10.0216 134.34 10.0216Z" fill="white"/>
<path d="M61.5907 10.9039C60.3769 10.2271 58.9381 9.8884 57.2746 9.8884C55.6594 9.8884 54.228 10.2245 52.9803 10.8967C51.7327 11.5691 50.7582 12.5047 50.0569 13.7042C49.3557 14.9036 49.0052 16.3011 49.0052 17.8966C49.0052 19.4542 49.3509 20.8371 50.0425 22.0461C50.734 23.2553 51.6986 24.1984 52.9367 24.8752C54.1745 25.5522 55.6207 25.8907 57.2744 25.8907C58.493 25.8907 59.5786 25.7431 60.5315 25.4482C61.4839 25.1532 62.2941 24.7568 62.9615 24.2584C63.629 23.7605 64.1487 23.2045 64.5211 22.5901C64.8932 21.9762 65.1086 21.3448 65.1667 20.6969H61.3657C61.3367 20.9485 61.2424 21.1998 61.0827 21.4514C60.9233 21.7028 60.6861 21.9371 60.3718 22.1549C60.0574 22.3726 59.6538 22.5443 59.1604 22.6701C58.6673 22.7958 58.0818 22.8585 57.405 22.8585C56.4087 22.8585 55.5646 22.6578 54.8734 22.2564C54.1817 21.8552 53.6569 21.275 53.2992 20.5156C53.097 20.0865 52.952 19.6102 52.8639 19.0867H65.3261C65.3455 18.9805 65.3599 18.8111 65.3698 18.5789C65.3792 18.3467 65.3842 18.129 65.3842 17.9259C65.3842 16.3299 65.0553 14.93 64.3977 13.726C63.7401 12.5216 62.8043 11.5812 61.5907 10.9039ZM53.3213 15.1549C53.6934 14.42 54.2208 13.8566 54.9026 13.4646C55.5845 13.073 56.3897 12.8769 57.3181 12.8769C58.2561 12.8769 59.03 13.0584 59.6394 13.4211C60.2487 13.7836 60.7031 14.2576 61.003 14.8429C61.25 15.3253 61.395 15.8354 61.4385 16.3734H52.9006C52.9939 15.9307 53.1341 15.5242 53.3213 15.1549Z" fill="white"/>
<path d="M79.6402 10.6176C78.7937 10.1315 77.7518 9.8884 76.5137 9.8884C75.3143 9.8884 74.2214 10.1754 73.2347 10.7491C72.4642 11.1972 71.8163 11.7771 71.2906 12.489V10.1496H67.4751V25.6411H71.2906V17.371C71.2906 16.5638 71.4527 15.8516 71.7767 15.2342C72.1008 14.6166 72.5479 14.1305 73.1188 13.7756C73.6894 13.4207 74.3422 13.2431 75.0773 13.2431C75.9188 13.2431 76.5788 13.4036 77.0577 13.7247C77.5364 14.0455 77.8749 14.4853 78.0732 15.0447C78.2713 15.6037 78.3707 16.2334 78.3707 16.9333C78.3707 17.1764 78.3707 17.4463 78.3707 17.7429C78.3707 18.0395 78.3707 18.3826 78.3707 18.7713V25.6411H82.2008V19.1358C82.2008 18.5721 82.2008 17.9982 82.2008 17.4146C82.2008 16.8313 82.2008 16.3063 82.2008 15.8394C82.2008 14.6339 81.9855 13.5836 81.5553 12.6888C81.1246 11.7945 80.4862 11.1042 79.6402 10.6176Z" fill="white"/>
<path d="M96.2586 11.9725C95.8172 11.5056 95.3142 11.1081 94.7497 10.7805C93.7243 10.1858 92.6073 9.88839 91.3985 9.88839C90.1604 9.88839 89.0023 10.193 87.9238 10.8024C86.8454 11.4117 85.9749 12.3067 85.3125 13.4864C84.6499 14.6666 84.3188 16.1073 84.3188 17.8095C84.3188 19.5601 84.6429 21.0354 85.2909 22.2344C85.9386 23.4338 86.8019 24.3405 87.8804 24.9546C88.9588 25.5686 90.1313 25.8758 91.3985 25.8758C92.6555 25.8758 93.7923 25.5565 94.8078 24.9182C95.3501 24.5773 95.8336 24.1711 96.2586 23.6993V25.6408H100.089V2.88126H96.2586V11.9725ZM95.6999 20.6025C95.3276 21.1972 94.8414 21.6641 94.2419 22.0024C93.6422 22.3411 92.9892 22.5102 92.2834 22.5102C91.1711 22.5102 90.2233 22.1284 89.4399 21.3641C88.6565 20.6003 88.2647 19.4153 88.2647 17.8097C88.2647 16.1945 88.6563 15.0123 89.4399 14.2628C90.2235 13.5133 91.1711 13.1383 92.2834 13.1383C92.9604 13.1383 93.6012 13.3006 94.2057 13.6244C94.81 13.9485 95.3033 14.3958 95.6855 14.9665C96.0675 15.5371 96.2586 16.2045 96.2586 16.9682V17.0626V17.1569V18.5494C96.2586 19.3234 96.0721 20.0076 95.6999 20.6025Z" fill="white"/>
<path d="M117.383 24.3916C117.305 24.1101 117.254 23.7921 117.23 23.4377C117.206 23.0837 117.194 22.722 117.194 22.3529V16.5284C117.194 16.3246 117.194 16.1207 117.194 15.9169C117.194 15.7131 117.194 15.5092 117.194 15.3052C117.194 14.1016 116.86 13.097 116.193 12.2911C115.526 11.4855 114.641 10.8838 113.538 10.4855C112.436 10.0878 111.222 9.88861 109.897 9.88861C108.475 9.88861 107.203 10.107 106.081 10.544C104.959 10.9808 104.076 11.6192 103.433 12.4589C102.79 13.2988 102.469 14.325 102.469 15.5387H106.241C106.241 14.6456 106.553 13.9931 107.176 13.5801C107.8 13.1678 108.697 12.9614 109.868 12.9614C110.98 12.9614 111.841 13.1459 112.45 13.5148C113.059 13.8837 113.364 14.4078 113.364 15.0875C113.364 15.0971 113.364 15.1069 113.364 15.1165C113.364 15.4758 113.013 15.7354 112.312 15.8955C111.611 16.0558 110.38 16.2233 108.62 16.398C107.43 16.5048 106.347 16.7453 105.37 17.1189C104.393 17.4928 103.617 18.0216 103.042 18.7062C102.466 19.3904 102.179 20.262 102.179 21.3199C102.179 22.2909 102.425 23.1208 102.918 23.8098C103.412 24.4993 104.093 25.0256 104.964 25.3899C105.834 25.7538 106.845 25.9359 107.996 25.9359C108.963 25.9359 109.858 25.8145 110.68 25.5721C111.502 25.3294 112.211 24.9872 112.806 24.5454C113.07 24.3493 113.304 24.1381 113.508 23.9123C113.551 24.1256 113.604 24.3296 113.669 24.5238C113.765 24.7858 113.874 25.0165 113.995 25.2154C114.116 25.4144 114.21 25.5478 114.278 25.6157H118.05C117.973 25.5382 117.866 25.3925 117.731 25.1789C117.595 24.9645 117.479 24.7024 117.383 24.3916ZM112.769 21.2116C112.353 21.7775 111.807 22.1961 111.13 22.4667C110.453 22.7375 109.717 22.8729 108.924 22.8729C107.947 22.8729 107.217 22.7133 106.734 22.394C106.25 22.0751 106.008 21.5962 106.008 20.9578C106.008 20.3003 106.296 19.8264 106.872 19.5361C107.447 19.2461 108.305 19.0478 109.447 18.9412C110.336 18.8543 111.217 18.7359 112.087 18.5859C112.559 18.5046 112.994 18.411 113.393 18.3055V19.0286C113.393 19.9183 113.185 20.646 112.769 21.2116Z" fill="white"/>
<path d="M121.993 7.48825C123.302 7.48825 124.362 6.58087 124.362 5.46156C124.362 4.34225 123.302 3.43488 121.993 3.43488C120.685 3.43488 119.624 4.34225 119.624 5.46156C119.624 6.58087 120.685 7.48825 121.993 7.48825Z" fill="white"/>
<path d="M123.87 10.1474H120.098V25.6411H123.87V10.1474Z" fill="white"/>
<path d="M14.9846 1.00461C6.70881 1.00461 0 7.71342 0 15.9892C0 24.265 6.70881 30.9738 14.9846 30.9738C23.2604 30.9738 29.9692 24.265 29.9692 15.9892C29.9692 7.71342 23.2601 1.00461 14.9846 1.00461ZM14.9905 21.2566C14.9905 23.0391 13.5454 24.4842 11.7631 24.4842C9.98055 24.4842 8.53566 23.0391 8.53566 21.2566V10.7216C8.53566 8.93904 9.98077 7.49415 11.7631 7.49415C13.5456 7.49415 14.9905 8.93925 14.9905 10.7216V21.2566ZM22.4104 12.76C22.4104 14.5432 20.9648 15.9885 19.1819 15.9885C17.3989 15.9885 15.9534 14.543 15.9534 12.76V10.7336C15.9534 8.95039 17.3989 7.50507 19.1819 7.50507C20.9648 7.50507 22.4104 8.95061 22.4104 10.7336V12.76Z" fill="white"/>
</g>
</g>
<defs>
<clipPath id="clip0_236_1126">
<rect width="136" height="32" fill="white"/>
</clipPath>
<clipPath id="clip1_236_1126">
<rect width="136" height="32" fill="white"/>
</clipPath>
</defs>
</svg>
