<svg width="1600" height="900" viewBox="0 0 1600 900" fill="none" xmlns="http://www.w3.org/2000/svg">
  <rect width="1600" height="900" fill="#0D0F13"/>
  <rect x="74" y="74" width="1452" height="752" rx="28" fill="url(#paint0_linear_1_2)" stroke="rgba(255,255,255,0.08)" stroke-width="2"/>
  <rect x="136" y="136" width="548" height="272" rx="24" fill="rgba(255,255,255,0.04)"/>
  <rect x="136" y="446" width="548" height="318" rx="24" fill="rgba(255,255,255,0.03)"/>
  <rect x="722" y="136" width="742" height="628" rx="24" fill="rgba(255,255,255,0.03)"/>
  <circle cx="1200" cy="278" r="152" fill="rgba(198,168,124,0.18)"/>
  <circle cx="1180" cy="278" r="96" fill="rgba(198,168,124,0.34)"/>
  <rect x="842" y="470" width="420" height="172" rx="18" fill="rgba(255,255,255,0.05)"/>
  <rect x="904" y="524" width="296" height="12" rx="6" fill="#C6A87C" fill-opacity="0.8"/>
  <rect x="904" y="554" width="244" height="12" rx="6" fill="white" fill-opacity="0.18"/>
  <rect x="904" y="584" width="214" height="12" rx="6" fill="white" fill-opacity="0.12"/>
  <path d="M1016 238L1106 182H1264L1348 238V430H1016V238Z" fill="rgba(255,255,255,0.08)"/>
  <path d="M1072 258H1292V430H1072V258Z" fill="rgba(255,255,255,0.06)"/>
  <path d="M1042 430H1324V478H1042V430Z" fill="rgba(255,255,255,0.1)"/>
  <rect x="194" y="204" width="178" height="14" rx="7" fill="#C6A87C" fill-opacity="0.85"/>
  <rect x="194" y="240" width="340" height="12" rx="6" fill="white" fill-opacity="0.16"/>
  <rect x="194" y="270" width="288" height="12" rx="6" fill="white" fill-opacity="0.12"/>
  <rect x="194" y="548" width="428" height="14" rx="7" fill="white" fill-opacity="0.14"/>
  <rect x="194" y="586" width="372" height="12" rx="6" fill="white" fill-opacity="0.1"/>
  <rect x="194" y="616" width="314" height="12" rx="6" fill="white" fill-opacity="0.08"/>
  <defs>
    <linearGradient id="paint0_linear_1_2" x1="800" y1="74" x2="800" y2="826" gradientUnits="userSpaceOnUse">
      <stop stop-color="#12151B"/>
      <stop offset="1" stop-color="#0A0C0F"/>
    </linearGradient>
  </defs>
</svg>
