<?xml version="1.0" encoding="UTF-8"?>
<svg width="456px" height="32px" viewBox="0 0 456 32" version="1.1" xmlns="http://www.w3.org/2000/svg" xmlns:xlink="http://www.w3.org/1999/xlink">
    <title>logo-band</title>
    <defs>
        <linearGradient x1="90.2554899%" y1="50%" x2="0%" y2="50%" id="linearGradient-1">
            <stop stop-color="#FFFFFF" offset="0%"></stop>
            <stop stop-color="#FFFFFF" stop-opacity="0" offset="100%"></stop>
        </linearGradient>
    </defs>
    <g id="👉Method-View" stroke="none" stroke-width="1" fill="none" fill-rule="evenodd">
        <g id="PWI_Method_02_FooterAlternatives" transform="translate(-1212.000000, -932.000000)">
            <g id="logo-band-iyzico-copy-2" transform="translate(1212.000000, 932.000000)">
                <g id="Troy-Logo" transform="translate(397.000000, 3.000000)">
                    <g id="Group_1_" transform="translate(1.437077, 22.724340)" fill="#FFFFFF">
                        <path d="M0.8,0.7 L0.4,0.7 C0.4,0.7 0.3,0.7 0.3,0.8 L0.3,0.9 L0.1,0.9 L0.1,0.7 C0.1,0.6 0.2,0.5 0.3,0.5 L1.6,0.5 C1.7,0.5 1.8,0.5 1.7,0.7 L1.7,0.9 L1.5,0.9 L1.5,0.8 C1.5,0.8 1.5,0.7 1.5,0.7 L1,0.7 L0.6,2.5 L0.4,2.5 L0.8,0.7 Z" id="Path_6_"></path>
                        <path d="M1.8,1.3 C1.8,1.3 1.7,1.2 1.8,1.3 L1.6,1.2 L1.6,1 L1.8,1 C1.9,1 2,1 1.9,1.2 L1.8,1.9 C1.8,2.1 1.8,2.3 2,2.3 C2.3,2.3 2.6,2 2.6,1.7 L2.7,1 L3,1 L2.7,2.2 C2.7,2.2 2.7,2.3 2.7,2.3 L2.8,2.3 L2.8,2.5 L2.7,2.5 C2.6,2.5 2.5,2.4 2.6,2.3 L2.6,2.2 C2.6,2.1 2.6,2.1 2.6,2.1 L2.6,2.1 C2.5,2.3 2.3,2.5 2,2.5 C1.6,2.5 1.5,2.3 1.6,2 L1.8,1.3 Z M2.2,0.5 L2.4,0.5 L2.3,0.8 L2.2,0.8 L2.2,0.5 Z M2.6,0.5 L2.8,0.5 L2.8,0.8 L2.6,0.8 L2.6,0.5 Z" id="Shape_5_" fill-rule="nonzero"></path>
                        <path d="M3.4,1.3 C3.4,1.3 3.4,1.2 3.4,1.3 L3.3,1.2 L3.3,1 L3.5,1 C3.6,1 3.7,1 3.6,1.2 L3.6,1.3 C3.6,1.4 3.6,1.4 3.6,1.4 L3.6,1.4 C3.7,1.2 3.9,1 4.1,1 C4.1,1 4.2,1 4.2,1 L4.2,1.2 C4.2,1.2 4.2,1.2 4.1,1.2 C3.9,1.2 3.7,1.4 3.6,1.6 C3.6,1.7 3.5,1.8 3.5,1.9 L3.4,2.5 L3.2,2.5 L3.4,1.3 Z" id="Path_7_"></path>
                        <path d="M4.5,0.8 C4.5,0.7 4.5,0.7 4.5,0.8 L4.3,0.7 L4.3,0.5 L4.5,0.5 C4.6,0.5 4.7,0.5 4.6,0.7 L4.5,1.6 L4.6,1.6 C4.7,1.6 4.7,1.6 4.8,1.5 L5.3,1 L5.5,1 L5,1.6 C4.9,1.7 4.9,1.7 4.9,1.7 L4.9,1.7 C4.9,1.7 4.9,1.7 5,1.8 L5.1,2.3 C5.1,2.3 5.1,2.4 5.2,2.4 L5.3,2.4 L5.3,2.6 L5.1,2.6 C5,2.6 4.9,2.6 4.9,2.5 L4.7,1.8 C4.7,1.7 4.6,1.7 4.6,1.7 L4.5,1.7 L4.3,2.5 L4.1,2.5 L4.5,0.8 Z" id="Path_8_"></path>
                        <path d="M6.1,1.3 C6.1,1.3 6.1,1.2 6,1.2 L5.7,1.2 L5.8,1 L6.3,1 C6.6,1 6.7,1 6.6,1.2 L6,2.2 C6,2.2 6,2.3 6.1,2.3 L6.4,2.3 L6.3,2.5 L5.9,2.5 C5.6,2.5 5.5,2.4 5.6,2.3 L6.1,1.3 Z M6.5,0.5 L6.9,0.5 L6.8,0.8 L6.4,0.8 L6.5,0.5 Z" id="Shape_6_" fill-rule="nonzero"></path>
                        <path d="M6.2,2.9 C6.3,2.9 6.4,2.8 6.5,2.7 L6.6,2.5 L6.4,1.3 C6.4,1.3 6.4,1.2 6.3,1.2 L6.3,1.2 L6.3,1 L6.4,1 C6.5,1 6.6,1 6.6,1.1 L6.8,2 C6.8,2.1 6.8,2.2 6.8,2.2 L6.8,2.2 C6.8,2.2 6.8,2.1 6.9,2 L7.4,1.1 C7.5,1 7.5,1 7.6,1 L7.7,1 L7.7,1.2 L7.7,1.2 C7.7,1.2 7.6,1.2 7.6,1.3 L6.6,2.8 C6.5,2.9 6.3,3 6.1,3 C5.9,3 5.9,2.9 5.9,2.9 L6,2.8 C6,2.8 6,2.9 6.2,2.9" id="Path_9_"></path>
                        <path d="M8.5,1 C8.9,1 9.1,1.3 9,1.7 C9,1.7 9,1.8 9,1.8 L7.9,1.8 C7.8,2.1 8,2.3 8.3,2.3 C8.6,2.3 8.8,2.1 8.8,2.1 L8.9,2.2 C8.9,2.2 8.7,2.4 8.3,2.4 C7.9,2.4 7.6,2.1 7.7,1.7 C7.8,1.3 8.1,1 8.5,1 Z M8.8,1.6 C8.9,1.3 8.7,1.2 8.5,1.2 C8.3,1.2 8,1.4 7.9,1.6 L8.8,1.6 Z" id="Shape_7_" fill-rule="nonzero"></path>
                        <polygon id="Path_10_" points="9.5 0.5 9.7 0.5 9.5 1 9.3 1"></polygon>
                    </g>
                </g>
                <g id="Visa" transform="translate(201.000000, 5.000000)" fill="#FFFFFF">
                    <path d="M23.1104348,0.352608696 L15.1408696,19.6621739 L9.94217391,19.6621739 L6.02,4.25173913 C5.7826087,3.30434783 5.57521739,2.95565217 4.85217391,2.55521739 C3.66913043,1.9026087 1.71652174,1.2926087 0,0.913043478 L0.116086957,0.352608696 L8.48565217,0.352608696 C9.55173913,0.352608696 10.5108696,1.07304348 10.7547826,2.32 L12.8265217,13.4947826 L17.9430435,0.352608696 L23.1104348,0.352608696 Z" id="Fill-3"></path>
                </g>
            </g>
        </g>
    </g>
</svg>
